<svg version="1.1" viewBox="0.0 0.0 960.0 720.0" fill="none" stroke="none" stroke-linecap="square" stroke-miterlimit="10" xmlns:xlink="http://www.w3.org/1999/xlink" xmlns="http://www.w3.org/2000/svg"><clipPath id="p.0"><path d="m0 0l960.0 0l0 720.0l-960.0 0l0 -720.0z" clip-rule="nonzero"/></clipPath><g clip-path="url(#p.0)"><path fill="#000000" fill-opacity="0.0" d="m0 0l960.0 0l0 720.0l-960.0 0z" fill-rule="evenodd"/><path fill="#000000" fill-opacity="0.502" d="m284.063 360.0l0 0c0 -108.21303 87.724 -195.93701 195.93701 -195.93701l0 0c51.9657 0 101.8031 20.64331 138.5484 57.388626c36.7453 36.745316 57.38861 86.58266 57.38861 138.54839l0 0c0 108.21301 -87.724 195.93701 -195.93701 195.93701l0 0c-108.21301 0 -195.93701 -87.724 -195.93701 -195.93701z" fill-rule="evenodd"/><path fill="#ffffff" d="m415.4801 259.95926l164.5669 164.56693l-35.527527 35.527557l-164.56693 -164.56693z" fill-rule="evenodd"/><path fill="#ffffff" d="m580.03955 295.4813l-164.56696 164.56693l-35.527557 -35.527557l164.56693 -164.56693z" fill-rule="evenodd"/></g></svg>