<svg xmlns="http://www.w3.org/2000/svg" width="20" height="20" viewBox="0 0 20 20">
    <path fill="#777" fill-rule="nonzero" d="M2.385 4c-.273 0-.522.087-.736.233l7.796 7.704c.341.338.784.338 1.125 0l7.781-7.704A1.296 1.296 0 0 0 17.615 4H2.385zm-1.298.993A1.584 1.584 0 0 0 1 5.497v10.006c0 .304.081.584.224.82l5.51-5.74-5.647-5.59zm17.826 0l-5.632 5.582 5.495 5.748c.143-.236.224-.516.224-.82V5.497c0-.18-.034-.345-.087-.504zm-6.302 6.252l-1.407 1.392a1.69 1.69 0 0 1-2.394 0l-1.406-1.385-5.452 5.673c.136.048.281.075.433.075h15.23c.152 0 .297-.027.433-.075l-5.437-5.68z"/>
</svg>
