<svg xmlns="http://www.w3.org/2000/svg" width="20" height="20" viewBox="0 0 20 20">
    <path fill="#777" fill-rule="evenodd" d="M17.172 6.5v.438c0 1.166-.229 2.347-.686 3.542a10.017 10.017 0 0 1-2.021 3.239c-.89.964-1.99 1.753-3.296 2.364-1.307.611-2.81.917-4.509.917-.515 0-1.025-.034-1.53-.101a10.435 10.435 0 0 1-2.847-.8A9.927 9.927 0 0 1 1 15.42a10.295 10.295 0 0 0 .879.033c.855 0 1.679-.13 2.47-.387a6.942 6.942 0 0 0 2.135-1.127c-.808 0-1.529-.233-2.162-.699a3.63 3.63 0 0 1-1.318-1.758c.117.033.231.053.343.059.111.005.231.008.36.008a4.741 4.741 0 0 0 .984-.1 3.662 3.662 0 0 1-2.109-1.23 3.323 3.323 0 0 1-.844-2.237v-.068c.246.135.507.242.783.32.275.079.565.118.87.118a3.491 3.491 0 0 1-1.196-1.237 3.295 3.295 0 0 1-.457-1.69c0-.315.047-.624.14-.926.095-.303.224-.59.388-.859a9.61 9.61 0 0 0 1.511 1.464 10.647 10.647 0 0 0 3.859 1.902c.72.19 1.462.303 2.223.336a3.275 3.275 0 0 1-.105-.807c0-.483.097-.94.29-1.372.193-.432.457-.807.791-1.127A3.759 3.759 0 0 1 13.445 3c.54 0 1.04.101 1.503.303.463.202.864.471 1.204.808a8.246 8.246 0 0 0 1.23-.329c.4-.14.774-.31 1.126-.513-.14.404-.352.774-.633 1.11a3.85 3.85 0 0 1-.984.842c.363-.045.72-.112 1.072-.202.351-.09.697-.213 1.037-.37A8.305 8.305 0 0 1 17.172 6.5z"/>
</svg>
