<?xml version="1.0" encoding="UTF-8"?><svg xmlns="http://www.w3.org/2000/svg" xmlns:xlink="http://www.w3.org/1999/xlink" version="1.1" id="Layer_1" x="0px" y="0px" viewBox="-49 141 512 512" xml:space="preserve"><style type="text/css">.st0{fill:none;} .st1{fill:url(#XMLID_2_);}</style><g id="XMLID_146_"><path id="XMLID_211_" class="st0" d="M241 501.2c-9.1 9.6-21.7 15.1-34.9 15.1h-.6c-13.5-.2-26-6-35-16L-7 328.7v265c0 11.6 6 18.3 9.5 18.3h411c3.5 0 9.5-6.6 9.5-18.3V334.6L241 501.2z" fill="none"/><path id="XMLID_415_" class="st0" d="M199.4 472.7l.6.7c2.1 2.5 4.8 2.9 6.1 2.9 1.4 0 4-.3 6.2-2.7l.6-.7.7-.6L397 304.6l-189.2.3-183.7-1.2 175.3 169z" fill="none"/><linearGradient id="XMLID_2_" gradientUnits="userSpaceOnUse" x1="-25" y1="458" x2="451.3035" y2="458"><stop offset="0" stop-color="#FF884B"/><stop offset="0.3498" stop-color="#FF634C"/><stop offset="0.6552" stop-color="#FE4A4F"/><stop offset="1" stop-color="#FE4840"/></linearGradient><path id="XMLID_426_" class="st1" d="M413.2 264.5l-205.3.5-205.3-1h-.1c-27.6 0-49.5 25.9-49.5 58.3v271.4c0 32.4 21.9 58.3 49.5 58.3h411c27.6 0 49.5-25.9 49.5-58.3V322.3c0-32.4-21.7-57.8-49.8-57.8zm-16.1 40L213.7 472.2l-.7.6-.6.7c-2.2 2.4-4.8 2.7-6.2 2.7-1.4 0-4-.4-6.1-2.9l-.6-.7L24.2 303.7l183.7 1.2 189.2-.4zM413.5 612H2.5C-1 612-7 605.4-7 593.7v-265l177.6 171.6c9 10 21.7 15.8 35.2 16h.6c13.3 0 25.7-5.5 34.8-15.1l182-166.6v259.1c-.2 11.7-6.2 18.3-9.7 18.3z" fill="url(#XMLID_2_)"/></g><metadata><rdf:RDF xmlns:rdf="http://www.w3.org/1999/02/22-rdf-syntax-ns#" xmlns:rdfs="http://www.w3.org/2000/01/rdf-schema#" xmlns:dc="http://purl.org/dc/elements/1.1/"><rdf:Description about="https://iconscout.com/legal#licenses" dc:title="mail" dc:description="mail" dc:publisher="Iconscout" dc:date="2018-04-25" dc:format="image/svg+xml" dc:language="en"><dc:creator><rdf:Bag><rdf:li>Neelpari Minimo</rdf:li></rdf:Bag></dc:creator></rdf:Description></rdf:RDF></metadata></svg>