<svg version="1.1" viewBox="0.0 0.0 720.0 720.0" fill="none" stroke="none" stroke-linecap="square" stroke-miterlimit="10" xmlns:xlink="http://www.w3.org/1999/xlink" xmlns="http://www.w3.org/2000/svg"><clipPath id="p.0"><path d="m0 0l720.0 0l0 720.0l-720.0 0l0 -720.0z" clip-rule="nonzero"/></clipPath><g clip-path="url(#p.0)"><path fill="#000000" fill-opacity="0.0" d="m0 0l720.0 0l0 720.0l-720.0 0z" fill-rule="evenodd"/><path fill="#000000" fill-opacity="0.502" d="m0 360.0l0 0c0 -198.82251 161.17749 -360.0 360.0 -360.0l0 0c95.477936 0 187.04535 37.928463 254.55847 105.44156c67.51306 67.51309 105.44153 159.0805 105.44153 254.55844l0 0c0 198.82251 -161.17749 360.0 -360.0 360.0l0 0c-198.82251 0 -360.0 -161.17749 -360.0 -360.0z" fill-rule="evenodd"/><path fill="#ffffff" d="m241.45595 176.19261l302.39374 302.39368l-65.25986 65.25983l-302.3937 -302.39368z" fill-rule="evenodd"/><path fill="#ffffff" d="m543.8051 241.45813l-302.39368 302.39374l-65.25984 -65.25986l302.39368 -302.39374z" fill-rule="evenodd"/></g></svg>