<?xml version="1.0" encoding="UTF-8" standalone="no"?>
<svg
   xmlns:dc="http://purl.org/dc/elements/1.1/"
   xmlns:cc="http://creativecommons.org/ns#"
   xmlns:rdf="http://www.w3.org/1999/02/22-rdf-syntax-ns#"
   xmlns:svg="http://www.w3.org/2000/svg"
   xmlns="http://www.w3.org/2000/svg"
   viewBox="0 0 480 480"
   height="480"
   width="480"
   xml:space="preserve"
   id="svg2"
   version="1.1"><metadata
     id="metadata8"><rdf:RDF><cc:Work
         rdf:about=""><dc:format>image/svg+xml</dc:format><dc:type
           rdf:resource="http://purl.org/dc/dcmitype/StillImage" /><dc:title></dc:title></cc:Work></rdf:RDF></metadata><defs
     id="defs6"><clipPath
       id="clipPath18"
       clipPathUnits="userSpaceOnUse"><path
         id="path16"
         d="M 0,360 H 360 V 0 H 0 Z" /></clipPath></defs><g
     transform="matrix(1.3333333,0,0,-1.3333333,0,480)"
     id="g10"><g
       id="g12"><g
         clip-path="url(#clipPath18)"
         id="g14"><g
           transform="translate(179.8115,252.998)"
           id="g20"><path
             id="path22"
             style="fill:#ffffff;fill-opacity:1;fill-rule:nonzero;stroke:none"
             d="m 0,0 c -0.567,-1.56 -2.978,-7.938 -3.544,-9.073 -1.418,-2.409 -5.95,-5.856 -10.15,-8.743 -1.202,-0.827 -6.152,-2.668 -6.577,-2.809 -3.686,-1.277 -7.313,-2.104 -11.199,-2.624 -2.516,-0.336 -7.015,0.736 -9.94,1.582 -1.166,0.337 -7.542,1.628 -8.905,2.407 -2.756,1.575 -8.925,5.644 -10.336,8.264 -0.975,2.552 -2.014,7.518 -1.677,10.938 0.3,3.045 1.515,10.548 1.656,10.831 0.851,1.701 2.693,5.458 4.253,6.592 1.275,0.992 10.206,5.416 12.616,6.124 2.694,0.567 4.961,0.283 7.656,-0.141 0.991,-0.142 5.315,-1.163 6.59,-2.014 0.568,-0.284 3.12,-5.635 4.112,-8.186 0.709,-3.544 0.213,-7.478 -2.056,-9.746 -0.316,-0.318 -6.665,-2.38 -8.689,-2.226 -3.845,0.292 -5.798,2.62 -7.3,4.372 -0.787,0.919 -2.014,3.524 -2.156,3.807 0,0 -1.417,-2.431 0.383,-7.88 1.56,-1.701 5.657,-4.467 7.68,-5.378 2.625,-1.181 5.646,0.233 8.906,1.792 0.709,0.283 7.923,3.358 9.057,8.744 0.786,3.735 1.213,5.408 0.248,9.923 -0.59,2.761 -5.047,6.039 -8.005,7.634 -4.476,2.413 -8.543,3.65 -9.055,3.736 -5.811,0.85 -12.206,0.262 -16.16,-2.269 -1.228,-0.786 -6.101,-4.954 -7.236,-6.372 -2.126,-2.552 -3.763,-5.819 -5.038,-8.795 l -1.331,-4.811 c -0.072,0 -0.796,-4.474 -0.796,-4.474 -0.213,0.921 -0.638,1.913 -0.779,2.835 -0.213,1.205 -0.781,4.182 -0.781,4.465 0.072,1.914 -0.383,3.898 -0.17,6.166 0.115,1.219 0.974,6.515 1.531,7.443 0.424,0.709 2.976,4.961 3.685,5.812 2.409,3.118 4.395,5.387 7.654,7.796 1.56,0.993 8.128,3.538 9.924,4.04 5.068,1.418 9.569,1.524 14.53,1.241 1.276,0 6.875,-0.461 8.151,-1.028 2.835,-1.134 4.465,-2.374 7.584,-3.969 0.295,-0.151 6.141,-4.143 10.168,-8.509 C -2.086,23.798 -1.385,19 0.851,15.551 3.644,11.242 1.417,4.961 0,0 m -12.939,-58.747 c 0.853,1.038 3.676,2.962 4.236,3.42 1.853,1.527 6.265,4.459 7.059,5.375 1.649,1.894 6.12,5.07 6.826,5.62 0.97,0.794 7.737,1.985 10.355,3.42 0.883,0.489 5.561,2.671 7.53,3.465 2.443,0.977 9.72,3.953 12.308,3.953 1.501,0 6.473,1.711 7.532,2.932 0,0 17.003,1.2 17.18,0.956 2.471,0 14.823,0.454 18.483,1.143 3.717,0.7 20.761,10.853 23.996,11.494 1.119,0.214 7.192,0.564 7.899,1.022 1.382,0.885 5.769,2.838 8.858,3.265 1.736,0.244 8.356,0.733 10.826,0.733 1.294,0 6.501,-0.244 8.59,-0.244 1.059,0 6.825,-1.985 7.649,-1.955 V -58.747 Z M 2.45,-195.028 c -26.934,0 -92.332,0.031 -92.332,0.031 21.577,5.803 132.561,27.404 135.817,63.177 6.012,66.062 -176.272,63.06 -186.583,63.393 l 0.002,1.285 c 8.499,-0.006 29.792,-0.14 36.172,-0.14 47.156,0 66.94,-2.554 88.293,-4.851 9.867,-1.06 95.679,-11.987 95.679,-62.665 0,-42.641 -61.728,-60.23 -77.048,-60.23 M 0.562,102.729 c -97.403,0 -176.364,-78.96 -176.364,-176.363 0,-97.403 78.961,-176.364 176.364,-176.364 97.403,0 176.364,78.961 176.364,176.364 0,97.403 -78.961,176.363 -176.364,176.363" /></g></g></g></g></svg>